#!OML:ASF H:\ColoradoDance\Project 1\Capture day 1\Session 8\male.ASF
:FULLY-SPECIFIED
:DEGREES
49
upperback -2.967520 1.871900 -5.736380
rfoot 175.703995 162.401993
lradius 21.591600
lthumb 18.393700 70.308701
rradius 23.837099
lwrist -20.432600
rhand -34.824001 1.620710
rhumerus 94.327400 -25.771999 -45.544498
lowerneck -2.185160 -11.121100 -7.056090
lhand -7.496010 41.158298
ltibia 29.273100
head 4.306480 -7.441310 -0.335651
rwrist 12.324700
lfingers 7.125020
rtoes 0.154460
lowerback -0.425583 1.646040 -6.721250
rfingers 7.125020
lclavicle 0.000000 -0.000000
upperneck 10.803300 -14.271500 -2.568780
rfemur -57.164299 -49.154701 32.580700
thorax -2.867450 0.975715 -2.211660
rclavicle 0.000000 -0.000000
rtibia 66.403503
lfoot -41.717499 27.332001
lhumerus 49.998001 49.124100 9.845470
rthumb -7.974930 -28.208799
root -16.361900 18.330299 18.902201 -167.442001 227.251999 170.858994
ltoes -1.273310
lfemur 1.678180 -39.268299 -9.107630
50
upperback -3.108900 2.468410 -7.311510
rfoot 165.445999 145.664993
lradius 23.524500
lthumb 4.327890 66.297798
rradius 28.941000
lwrist -24.453400
rhand -39.534401 3.840300
rhumerus 97.610397 -21.338400 -44.199299
lowerneck -3.891090 -8.165790 -4.143640
lhand -22.083799 36.362000
ltibia 11.014500
head 5.322010 -5.522820 -0.669195
rwrist 23.231600
lfingers 7.125020
rtoes 10.351700
lowerback -0.252725 2.201030 -6.543730
rfingers 7.125020
lclavicle 0.000000 0.000000
upperneck 15.202300 -10.438000 -2.342170
rfemur -61.501598 -48.978901 45.612301
thorax -3.052610 1.218340 -3.988980
rclavicle 0.000000 0.000000
rtibia 59.792301
lfoot -30.995899 23.074900
lhumerus 82.471802 48.423199 41.176998
rthumb -12.518900 -25.764700
root -19.539101 17.448099 18.020000 -166.570999 235.388000 164.184006
ltoes -17.679199
lfemur 25.535500 -25.690201 -2.201630
51
upperback -1.621150 3.694990 -8.457940
rfoot 151.268997 146.712997
lradius 29.676600
lthumb 0.058763 21.961201
rradius 27.200899
lwrist 1.171290
rhand -62.689999 -60.808701
rhumerus 87.255600 -9.493380 -35.642300
lowerneck -11.181400 -5.034150 2.761610
lhand -26.504200 -8.018540
ltibia 74.236099
head 4.921920 -3.451900 -1.023080
rwrist 33.788300
lfingers 7.125020
rtoes 5.924650
lowerback 2.147240 3.215020 -3.714900
rfingers 7.125020
lclavicle 0.000000 -0.000000
upperneck 10.644000 -7.229220 -0.151627
rfemur -48.599701 -29.005800 53.254299
thorax -2.569850 1.729360 -6.902650
rclavicle 0.000000 -0.000000
rtibia 63.835201
lfoot 14.421100 -15.610800
lhumerus 81.650597 37.699100 67.308403
rthumb -34.708801 -87.432297
root -22.450800 16.930799 15.978400 -138.574005 250.326004 137.574997
ltoes -3.419680
lfemur -13.237800 -10.595800 22.133499
52
upperback -1.241190 8.430860 -7.974160
rfoot 150.110992 160.520996
lradius 21.927700
lthumb -10.554800 -7.551300
rradius 22.705799
lwrist 55.138000
rhand -66.144203 -8.126780
rhumerus 46.517502 30.693501 -47.672901
lowerneck -3.214690 -2.256850 2.219550
lhand -37.497700 -37.266300
ltibia 57.452702
head -0.058691 -1.649200 1.682640
rwrist 15.081900
lfingers 7.125020
rtoes 2.356700
lowerback 2.461790 6.726080 -2.118490
rfingers 7.125020
lclavicle -0.000000 -0.000000
upperneck -2.188270 -3.162460 6.737300
rfemur -36.806099 -11.520100 49.120300
thorax -1.754000 4.084690 -7.416430
rclavicle -0.000000 -0.000000
rtibia 62.522900
lfoot -22.972099 -19.066299
lhumerus 31.857800 -8.590530 56.972801
rthumb -37.979198 -33.931702
root -24.003599 17.078400 15.902900 -20.651699 246.658997 25.441000
ltoes -29.205799
lfemur -57.874401 -17.442699 17.037100
53
upperback -0.686219 3.676500 0.388019
rfoot 155.343994 177.468994
lradius 42.426601
lthumb 6.907590 67.992500
rradius 20.309299
lwrist 15.180400
rhand -41.202499 -18.705601
rhumerus 0.429652 16.716200 -52.070900
lowerneck -6.375210 -7.230530 -4.751840
lhand -19.411900 38.125198
ltibia 42.417198
head 4.643280 -5.277540 4.181370
rwrist 26.717501
lfingers 7.125020
rtoes -17.566799
lowerback 2.687090 2.621710 5.713990
rfingers 7.125020
lclavicle 0.000000 -0.000000
upperneck 8.500650 -11.255300 13.518400
rfemur -27.787001 0.754999 39.209400
thorax -1.880150 1.757360 -2.941760
rclavicle 0.000000 -0.000000
rtibia 62.735699
lfoot -19.839800 -16.127899
lhumerus -15.615500 -28.589600 97.079201
rthumb -14.126800 -48.205399
root -27.438801 17.999001 16.521200 4.206420 185.492996 10.704200
ltoes -6.883950
lfemur -37.827400 -21.741800 18.832500
54
upperback 0.110507 -2.998450 4.038870
rfoot 161.091995 139.091995
lradius 67.553200
lthumb 23.879000 54.889000
rradius 22.540800
lwrist 32.060799
rhand -33.504002 -39.553902
rhumerus -0.926347 7.803000 -13.707500
lowerneck -5.535670 -13.662700 -10.693400
lhand -1.785640 26.353399
ltibia 41.182899
head 6.899000 -8.891010 3.384030
rwrist -0.078245
lfingers 7.125020
rtoes -10.785600
lowerback 3.418810 -2.376930 0.512766
rfingers 7.125020
lclavicle 0.000000 -0.000000
upperneck 12.978000 -18.760099 10.731800
rfemur -53.085999 -30.483801 28.785000
thorax -1.611880 -1.457010 4.011900
rclavicle 0.000000 -0.000000
rtibia 65.127701
lfoot -32.103199 8.175860
lhumerus -46.563801 -27.997801 95.740097
rthumb -6.700730 -69.427902
root -29.706900 18.715000 14.410300 11.818600 116.845001 -1.902350
ltoes -4.501510
lfemur -16.826099 9.349700 -13.999900
55
upperback 3.622490 -4.819770 5.709660
rfoot 163.429001 157.514008
lradius 21.289000
lthumb 16.275499 -94.814400
rradius 19.847200
lwrist 10.298400
rhand -23.605499 -53.261200
rhumerus -36.443600 -0.411451 -10.376100
lowerneck -6.596830 -13.296300 -6.933650
lhand -9.696940 65.477501
ltibia 52.298801
head 6.175520 -8.664540 3.200360
rwrist -11.327500
lfingers 7.125020
rtoes -9.886350
lowerback 11.853500 -4.057530 1.372640
rfingers 7.125020
lclavicle 0.000000 -0.000000
upperneck 10.939300 -18.646099 11.848000
rfemur -42.778801 -10.607700 24.032400
thorax -2.439150 -2.345460 5.867290
rclavicle 0.000000 -0.000000
rtibia 55.992901
lfoot -39.001999 -2.738120
lhumerus -53.768398 19.696800 21.617701
rthumb 2.858370 -83.221802
root -28.756800 18.629601 13.196700 6.349620 65.246902 -4.186540
ltoes 56.372700
lfemur -16.788601 10.572800 -2.442270
56
upperback 2.552400 -2.731050 4.021230
rfoot 152.194000 180.356003
lradius 25.713499
lthumb 6.196900 -108.859001
rradius 15.005000
lwrist 4.226060
rhand -30.154900 -12.600200
rhumerus -76.697701 -20.886101 12.656500
lowerneck -6.202140 -12.166200 -0.855714
lhand -20.148001 78.969200
ltibia 28.760099
head 2.882100 -8.045750 2.314960
rwrist 10.169000
lfingers 7.125020
rtoes -22.521601
lowerback 8.407090 -2.173730 0.330368
rfingers 7.125020
lclavicle -0.000000 0.000000
upperneck 2.652820 -16.633101 9.253030
rfemur -77.133102 -12.031100 25.625000
thorax -1.881460 -1.361450 4.249370
rclavicle -0.000000 0.000000
rtibia 62.502998
lfoot -31.261801 14.746500
lhumerus -17.708700 33.725700 12.785000
rthumb -3.467030 -42.551800
root -27.858601 17.764200 11.178500 25.941200 9.256650 5.476530
ltoes -19.770901
lfemur -12.883000 5.520520 -15.282200
57
upperback 3.877530 -4.127240 7.952780
rfoot 166.927002 154.061005
lradius 28.969400
lthumb 19.491301 -156.320999
rradius 17.929199
lwrist 14.851600
rhand -33.695400 -21.686501
rhumerus -70.556801 -30.692400 -1.296460
lowerneck -17.022499 -8.997880 9.444150
lhand -6.354750 -127.278000
ltibia 0.000000
head 3.900810 -6.730590 -3.297500
rwrist 9.691490
lfingers 7.125020
rtoes 3.998750
lowerback 3.672310 -3.082890 9.686060
rfingers 7.125020
lclavicle -0.000000 -0.000000
upperneck 6.749960 -13.817400 -2.651950
rfemur -86.115501 -12.993900 30.120501
thorax 1.930810 -2.004630 2.969020
rclavicle -0.000000 -0.000000
rtibia 57.883400
lfoot -7.239630 -3.736640
lhumerus 30.513599 19.901600 52.209000
rthumb -6.885540 -51.554600
root -27.142599 17.533300 12.960800 27.318600 -37.809299 8.530860
ltoes -54.601501
lfemur 8.399470 13.778400 -35.998299
58
upperback -0.246372 -10.911600 8.618190
rfoot 170.042007 165.335007
lradius 15.995000
lthumb 22.343399 -290.080994
rradius 11.074800
lwrist -89.153099
rhand -47.071400 27.742100
rhumerus -64.667397 -32.590599 -0.036241
lowerneck -14.756900 -1.071960 4.230800
lhand -3.386070 -318.808990
ltibia 22.267000
head 5.694400 -1.035110 -2.747470
rwrist 17.967300
lfingers 7.125020
rtoes 3.855290
lowerback -2.172530 -7.941150 2.014590
rfingers 7.125020
lclavicle -0.000000 0.000000
upperneck 11.125100 -1.508060 -6.054720
rfemur -79.743401 6.675060 2.398200
thorax 2.291250 -5.581830 7.325880
rclavicle -0.000000 0.000000
rtibia 52.855900
lfoot 36.609600 -4.280360
lhumerus 129.065994 13.856100 233.936996
rthumb -19.775999 -1.271860
root -28.422400 18.547400 15.978000 -19.954800 -77.089798 60.771801
ltoes 23.530199
lfemur -5.446530 4.726330 -25.985500
59
upperback -0.647320 -10.335300 -0.128492
rfoot 162.649994 165.087006
lradius 7.098500
lthumb 15.941100 -285.635986
rradius 9.846500
lwrist -64.071999
rhand -37.110001 17.772499
rhumerus -64.574799 -30.128799 6.553690
lowerneck -12.138800 4.771050 0.602048
lhand -10.044200 -315.000000
ltibia 22.246599
head 6.945700 2.924730 -0.526287
rwrist 33.856400
lfingers 7.125020
rtoes 4.397740
lowerback -2.780600 -7.905190 -11.145000
rfingers 7.125020
lclavicle 0.000000 0.000000
upperneck 15.733000 6.769360 -3.307880
rfemur -64.721397 -0.114710 17.385300
thorax 2.780100 -5.321760 5.283920
rclavicle 0.000000 0.000000
rtibia 47.538300
lfoot 36.043598 36.631500
lhumerus 71.533501 52.028900 169.022995
rthumb -10.180700 -11.961200
root -29.729000 18.950800 17.693300 -127.475998 -39.817699 157.744003
ltoes -32.098701
lfemur 17.661699 -59.806400 -34.673100
